<svg xmlns="http://www.w3.org/2000/svg" width="26" height="26"><path fill="#fff" fill-rule="evenodd" d="M13 21a1 1 0 0 1 1 1v3a1 1 0 1 1-2 0v-3a1 1 0 0 1 1-1m-5.657-2.343a1 1 0 0 1 0 1.414l-2.121 2.121a1 1 0 0 1-1.414-1.414l2.12-2.121a1 1 0 0 1 1.415 0m12.728 0 2.121 2.121a1 1 0 0 1-1.414 1.414l-2.121-2.12a1 1 0 0 1 1.414-1.415M13 8a5 5 0 1 1 0 10 5 5 0 0 1 0-10m12 4a1 1 0 1 1 0 2h-3a1 1 0 1 1 0-2ZM4 12a1 1 0 1 1 0 2H1a1 1 0 1 1 0-2Zm18.192-8.192a1 1 0 0 1 0 1.414l-2.12 2.121a1 1 0 0 1-1.415-1.414l2.121-2.121a1 1 0 0 1 1.414 0m-16.97 0 2.121 2.12A1 1 0 0 1 5.93 7.344L3.808 5.222a1 1 0 0 1 1.414-1.414M13 0a1 1 0 0 1 1 1v3a1 1 0 1 1-2 0V1a1 1 0 0 1 1-1"/></svg>